<?xml version="1.0" encoding="UTF-8" standalone="no"?>
<!-- Created with Inkscape (http://www.inkscape.org/) -->

<svg
   xmlns:dc="http://purl.org/dc/elements/1.1/"
   xmlns:cc="http://creativecommons.org/ns#"
   xmlns:rdf="http://www.w3.org/1999/02/22-rdf-syntax-ns#"
   xmlns:svg="http://www.w3.org/2000/svg"
   xmlns="http://www.w3.org/2000/svg"
   xmlns:sodipodi="http://sodipodi.sourceforge.net/DTD/sodipodi-0.dtd"
   xmlns:inkscape="http://www.inkscape.org/namespaces/inkscape"
   width="300"
   height="300"
   id="svg4180"
   version="1.1"
   inkscape:version="0.92.2 (5c3e80d, 2017-08-06)"
   sodipodi:docname="logoJirufikLight.svg">
  <defs
     id="defs4182" />
  <sodipodi:namedview
     id="base"
     pagecolor="#ffffff"
     bordercolor="#666666"
     borderopacity="1.0"
     inkscape:pageopacity="0.0"
     inkscape:pageshadow="2"
     inkscape:zoom="1.2"
     inkscape:cx="-188.57143"
     inkscape:cy="106.21066"
     inkscape:document-units="px"
     inkscape:current-layer="layer1"
     showgrid="false"
     inkscape:window-width="1920"
     inkscape:window-height="1005"
     inkscape:window-x="1911"
     inkscape:window-y="252"
     inkscape:window-maximized="1"
     fit-margin-top="0"
     fit-margin-left="0"
     fit-margin-right="0"
     fit-margin-bottom="0" />
  <metadata
     id="metadata4185">
    <rdf:RDF>
      <cc:Work
         rdf:about="">
        <dc:format>image/svg+xml</dc:format>
        <dc:type
           rdf:resource="http://purl.org/dc/dcmitype/StillImage" />
        <dc:title></dc:title>
      </cc:Work>
    </rdf:RDF>
  </metadata>
  <g
     inkscape:label="Layer 1"
     inkscape:groupmode="layer"
     id="layer1"
     transform="translate(-2.1428605,0.49496409)">
    <circle
       r="140.52414"
       cy="149.50504"
       cx="152.14285"
       style="fill:none;stroke:#616161;stroke-width:18.95170784;stroke-linecap:round;stroke-linejoin:round;stroke-miterlimit:4;stroke-dasharray:none;stroke-opacity:1;fill-opacity:1"
       id="path3223-2" />
    <path
       inkscape:connector-curvature="0"
       style="fill:#616161;fill-opacity:1;fill-rule:nonzero;stroke:#000000;stroke-width:0;stroke-linecap:round;stroke-linejoin:round;stroke-miterlimit:4;stroke-opacity:1"
       d="m 199.92292,50.60357 c -2.32108,-0.0149 -4.67588,1.08046 -6.25,3.125 -0.2096,0.27201 -0.393,0.58715 -0.5625,0.875 l -0.25,-0.125 -47.40625,61.5 c -0.30228,0.12614 -0.52394,0.29196 -0.8125,0.4375 -3.44399,-5.76275 -9.16503,-11.52179 -16.53125,-16.15625 -15.77054,-9.92187 -33.07513,-10.77715 -38.65625,-1.90625 -5.58107,8.87092 2.63576,24.10931 18.40625,34.03125 5.41721,3.40814 11.00675,5.72773 16.25,6.96875 -0.36182,0.54871 -0.70548,1.1752 -1.03125,1.75 l -21.375,2.3125 -61.40625,6.8125 30.28125,37.90625 30.25,37.90625 31.125,-44.6875 0.65625,-0.96875 c 0.24696,0.16771 0.49766,0.37044 0.75,0.53125 v 102.15625 h 42.15625 V 172.91607 c 0.48754,-0.68669 0.94624,-1.396 1.375,-2.125 2.91937,6.98062 9.47212,14.4451 18.5,20.125 15.7705,9.92188 33.044,10.7459 38.625,1.875 5.58112,-8.87093 -2.63574,-24.07811 -18.40625,-34 -8.13166,-5.11596 -16.6815,-7.85889 -23.8125,-8.0625 l 46.96875,-61.03125 -0.15625,-0.1875 c 0.23468,-0.23728 0.41581,-0.54064 0.625,-0.8125 2.61673,-3.39875 2.0585,-8.15389 -1.1875,-10.65625 -3.24602,-2.50235 -7.97704,-1.74248 -10.59375,1.65625 -0.20947,0.27206 -0.3305,0.55589 -0.5,0.84375 l -0.25,-0.125 -40.84375,53 c -2.50121,-3.43936 -5.73112,-6.76333 -9.625,-9.71875 -3.96837,-3.01189 -8.12171,-5.23706 -12.21875,-6.75 l 40.90625,-53.21875 -0.21875,-0.1875 c 0.23464,-0.23732 0.54081,-0.5094 0.75,-0.78125 2.61673,-3.39877 2.08972,-8.12263 -1.15625,-10.625 -1.01446,-0.78197 -2.21096,-1.23639 -3.40625,-1.40625 -0.32869,-0.0466 -0.63705,-0.123 -0.96875,-0.125 z"
       id="rect4124-5" />
  </g>
</svg>
