<?xml version="1.0" standalone="no"?>
<!DOCTYPE svg PUBLIC "-//W3C//DTD SVG 20010904//EN"
 "http://www.w3.org/TR/2001/REC-SVG-20010904/DTD/svg10.dtd">
<svg version="1.0" xmlns="http://www.w3.org/2000/svg"
 width="700.000000pt" height="700.000000pt" viewBox="0 0 700.000000 700.000000"
 preserveAspectRatio="xMidYMid meet">
<metadata>
Created by potrace 1.11, written by Peter Selinger 2001-2013
</metadata>
<g transform="translate(0.000000,700.000000) scale(0.100000,-0.100000)"
fill="#000000" stroke="none">
<path d="M1894 6433 c-17 -16 -97 -83 -159 -135 -38 -31 -180 -150 -225 -188
-25 -21 -64 -53 -86 -72 -49 -39 -451 -376 -476 -398 -9 -8 -93 -78 -187 -155
-93 -77 -170 -144 -170 -150 -1 -9 13 -28 72 -95 37 -42 282 -333 289 -343 3
-6 89 59 190 144 294 247 380 319 428 359 39 34 155 131 314 264 96 79 141
118 166 140 14 12 73 61 133 110 59 49 107 93 107 98 0 14 -353 437 -366 437
-5 1 -19 -7 -30 -16z"/>
<path d="M5028 6403 c-21 -27 -47 -59 -60 -73 -13 -14 -68 -79 -123 -145 -55
-66 -110 -131 -122 -145 -13 -14 -23 -27 -23 -30 0 -3 16 -16 34 -30 30 -22
264 -217 276 -230 3 -3 88 -75 190 -160 102 -85 190 -159 196 -165 13 -12 -1
0 269 -225 115 -96 221 -185 235 -196 91 -79 135 -114 140 -114 3 0 21 19 40
42 39 47 140 168 284 337 25 30 46 58 46 61 0 3 -24 26 -52 51 -45 38 -563
473 -637 534 -13 11 -45 38 -70 60 -26 22 -69 58 -95 80 -45 36 -101 83 -242
202 -27 22 -89 75 -139 117 -49 41 -95 75 -100 76 -6 0 -27 -21 -47 -47z"/>
<path d="M3425 5833 c-72 -3 -270 -21 -305 -28 -13 -2 -40 -7 -60 -10 -50 -8
-78 -13 -131 -25 -26 -6 -53 -13 -60 -14 -28 -5 -106 -28 -169 -49 -36 -11
-70 -22 -77 -23 -25 -4 -261 -109 -343 -152 -798 -419 -1329 -1226 -1397
-2122 -97 -1288 761 -2464 2012 -2756 98 -22 140 -30 265 -49 162 -24 570 -24
685 0 11 3 38 7 60 10 22 3 47 7 55 10 8 2 31 6 50 9 60 9 261 63 355 96 430
150 858 444 1131 775 27 33 54 65 59 71 6 6 19 23 30 38 11 16 32 44 48 64 47
60 151 232 204 337 135 264 212 507 258 806 40 262 36 618 -10 839 -3 14 -7
39 -10 55 -6 45 -35 165 -55 230 -60 194 -163 433 -253 589 -159 275 -424 572
-681 765 -68 51 -214 151 -221 151 -1 0 -32 18 -67 39 -325 198 -800 332
-1202 340 -55 1 -102 3 -105 4 -3 1 -33 1 -66 0z m320 -597 c22 -3 55 -8 73
-11 254 -38 521 -138 754 -282 266 -164 505 -404 670 -673 149 -243 259 -560
286 -830 10 -90 9 -401 -1 -480 -24 -195 -99 -451 -183 -626 -45 -91 -124
-231 -159 -279 -187 -259 -393 -451 -645 -602 -162 -97 -463 -219 -555 -224
-5 -1 -17 -5 -26 -9 -13 -8 -146 -29 -274 -45 -52 -6 -317 -6 -375 0 -89 10
-221 32 -252 41 -10 3 -30 7 -45 10 -16 3 -55 13 -88 24 -381 119 -686 312
-939 592 -82 92 -196 241 -196 258 0 6 -4 10 -10 10 -5 0 -10 4 -10 10 0 5
-15 33 -33 62 -80 126 -184 384 -221 548 -43 188 -54 285 -54 480 1 549 206
1046 593 1436 61 60 137 130 170 155 33 24 62 46 65 49 32 33 213 143 325 197
150 73 386 150 515 168 24 4 47 8 50 10 3 1 39 6 80 10 41 4 77 9 79 11 6 5
361 -3 406 -10z"/>
<path d="M3210 3791 l0 -876 425 -255 c233 -140 471 -283 527 -317 57 -34 109
-65 116 -69 7 -3 79 -46 160 -95 80 -49 149 -89 153 -89 3 0 23 28 44 63 21
34 69 113 108 175 38 62 68 115 66 117 -11 10 -1132 673 -1151 680 -11 4 -13
139 -13 773 l1 768 -218 0 -218 1 0 -876z"/>
</g>
</svg>
